<svg xmlns="http://www.w3.org/2000/svg" width="29" height="29" viewBox="0 0 29 29">
  <path id="_5279123_tweet_twitter_twitter_logo_icon" data-name="5279123_tweet_twitter_twitter logo_icon" d="M14.5,0A14.5,14.5,0,1,1,0,14.5,14.507,14.507,0,0,1,14.5,0ZM11.946,22.212a9.858,9.858,0,0,0,9.925-9.925c0-.152,0-.3-.007-.449a7.145,7.145,0,0,0,1.743-1.808,7.079,7.079,0,0,1-2,.55,3.486,3.486,0,0,0,1.534-1.931,7.065,7.065,0,0,1-2.214.846,3.49,3.49,0,0,0-6.033,2.387,3.2,3.2,0,0,0,.094.8,9.9,9.9,0,0,1-7.19-3.646,3.486,3.486,0,0,0,1.085,4.651A3.427,3.427,0,0,1,7.3,13.249v.043a3.492,3.492,0,0,0,2.8,3.422,3.479,3.479,0,0,1-.919.123,3.327,3.327,0,0,1-.658-.065A3.483,3.483,0,0,0,11.78,19.2a7.012,7.012,0,0,1-4.333,1.49,6.348,6.348,0,0,1-.832-.051,9.719,9.719,0,0,0,5.331,1.577Z" fill="#1e1e1e" fill-rule="evenodd"/>
</svg>
