<svg xmlns="http://www.w3.org/2000/svg" width="29" height="29" viewBox="0 0 29 29">
  <path id="_5279112_camera_instagram_social_media_instagram_logo_icon" data-name="5279112_camera_instagram_social media_instagram logo_icon" d="M14.5,0A14.5,14.5,0,1,1,0,14.5,14.507,14.507,0,0,1,14.5,0Zm0,5.437c-2.461,0-2.77.01-3.736.055a6.653,6.653,0,0,0-2.2.421,4.634,4.634,0,0,0-2.65,2.65,6.653,6.653,0,0,0-.421,2.2c-.044.967-.054,1.275-.054,3.736s.01,2.77.054,3.736a6.653,6.653,0,0,0,.421,2.2,4.634,4.634,0,0,0,2.65,2.65,6.654,6.654,0,0,0,2.2.421c.967.044,1.275.055,3.736.055s2.77-.01,3.736-.055a6.654,6.654,0,0,0,2.2-.421,4.634,4.634,0,0,0,2.65-2.65,6.653,6.653,0,0,0,.421-2.2c.044-.967.055-1.275.055-3.736s-.01-2.77-.055-3.736a6.653,6.653,0,0,0-.421-2.2,4.634,4.634,0,0,0-2.65-2.65,6.652,6.652,0,0,0-2.2-.421C17.27,5.448,16.961,5.437,14.5,5.437Zm0,1.633c2.42,0,2.706.009,3.662.053a5.015,5.015,0,0,1,1.683.312,3,3,0,0,1,1.72,1.72,5.013,5.013,0,0,1,.312,1.683c.044.956.053,1.242.053,3.662s-.009,2.706-.053,3.662a5.013,5.013,0,0,1-.312,1.683,3,3,0,0,1-1.72,1.72,5.013,5.013,0,0,1-1.683.312c-.955.044-1.242.053-3.662.053s-2.707-.009-3.662-.053a5.013,5.013,0,0,1-1.683-.312,3,3,0,0,1-1.72-1.72,5.014,5.014,0,0,1-.312-1.683C7.08,17.206,7.07,16.92,7.07,14.5s.009-2.706.053-3.662a5.014,5.014,0,0,1,.312-1.683,3,3,0,0,1,1.72-1.72,5.015,5.015,0,0,1,1.683-.312c.956-.044,1.242-.053,3.662-.053Zm0,2.776A4.654,4.654,0,1,0,19.154,14.5,4.654,4.654,0,0,0,14.5,9.846Zm0,7.674A3.021,3.021,0,1,1,17.521,14.5,3.021,3.021,0,0,1,14.5,17.521Zm5.925-7.858a1.087,1.087,0,1,1-1.088-1.087A1.087,1.087,0,0,1,20.425,9.662Z" fill="#1e1e1e" fill-rule="evenodd"/>
</svg>
