<svg xmlns="http://www.w3.org/2000/svg" width="77" height="76" viewBox="0 0 77 76">
  <g id="Group_17699" data-name="Group 17699" transform="translate(-1317 -822)">
    <g id="Group_17491" data-name="Group 17491" transform="translate(333)">
      <ellipse id="Ellipse_284" data-name="Ellipse 284" cx="38.5" cy="38" rx="38.5" ry="38" transform="translate(984 822)" fill="#4f872e"/>
    </g>
    <g id="Group_17493" data-name="Group 17493" transform="translate(70.486 -7.341)">
      <path id="Path_5139" data-name="Path 5139" d="M890.963,566.5c-.725,1.523-1.37,3.09-2.19,4.56-2.952,5.288-7.455,7.882-13.542,7.493a8.228,8.228,0,0,1-5.37-2.505l9.578-5.522-.1-.215c-.573.215-1.149.423-1.718.647-2.69,1.061-5.366,2.157-8.073,3.17a1.528,1.528,0,0,0-1.14,1.57c.043,1.747.171,3.491.261,5.187,3.271.351,3.271.351,3.428,3.235,3.71-.6,5.736.055,6.847,2.282a27.908,27.908,0,0,1-4.6,2.072,6.276,6.276,0,0,1-3.591-.323,9.158,9.158,0,0,0-3.436-.872c-1.131.014-2.265-.075-3.4-.145a1.932,1.932,0,0,1-.8-.222c-1.753-.973-3.493-1.967-5.243-2.957,1.234-2.547,3.474-3,6.106-1.687.855-.48,1.651-.692,2.046-1.211a4.418,4.418,0,0,0,.674-2.136,20.7,20.7,0,0,0,.027-3.077,3.026,3.026,0,0,0-1.614-2.747c-1.867-1.073-3.625-2.335-5.433-3.512a1.678,1.678,0,0,0-1-.333l6.83,6.052a8.352,8.352,0,0,1-7.9.378,11.046,11.046,0,0,1-6.4-6.564A29.672,29.672,0,0,1,850,564.747c-.265-1.257,0-1.486,1.259-1.618a7.89,7.89,0,0,0,1.012-.24h2.551c.372.081.742.173,1.116.239a49.293,49.293,0,0,1,4.86.884c3.516,1,6.782,3.468,6.712,8.384,0,.176.217.355.333.533.141-.2.376-.38.411-.595a9.14,9.14,0,0,1,6.779-7.732,21.316,21.316,0,0,1,10.358-.287c1.928.346,3.919.536,5.574,1.763Z" transform="translate(421.343 283.452)" fill="#fffdf9" fill-rule="evenodd"/>
      <path id="Path_5140" data-name="Path 5140" d="M851.126,687.571c-4.159-.693-7.417-3.335-11.058-5.146a1.175,1.175,0,0,1-.525-.889c.077-4.5.2-8.993.315-13.488a1.957,1.957,0,0,1,.053-.329,17.991,17.991,0,0,1,13.613,3.19,3.984,3.984,0,0,0,2.561.784c1.237-.024,2.478.055,3.715.121a2.417,2.417,0,0,1,2.348,1.654,2.205,2.205,0,0,1-1.235,2.369,7.135,7.135,0,0,1-4.375.956,11.415,11.415,0,0,0-2.327-.051c-.431.078-.776.625-1.161.961.347.383.705,1.107,1.037,1.095a40.369,40.369,0,0,0,6.295-.557,4.849,4.849,0,0,0,3.338-3.024,3.274,3.274,0,0,1,1.405-1.412c2.046-1.044,4.119-2.051,6.249-2.9a5.455,5.455,0,0,1,2.771-.277,2.849,2.849,0,0,1,2.4,2.528,3.208,3.208,0,0,1-1.512,3.28,95.25,95.25,0,0,1-15.5,8.746c-2.046.907-4.184,1.6-6.281,2.4Z" transform="translate(429.5 201.08)" fill="#fffdf9" fill-rule="evenodd"/>
      <path id="Path_5141" data-name="Path 5141" d="M790.022,659.889h8.8c-.123,5.93-.243,11.737-.365,17.647h-8.436Z" transform="translate(468.492 207.075)" fill="#fffdf9" fill-rule="evenodd"/>
    </g>
  </g>
</svg>
