<svg xmlns="http://www.w3.org/2000/svg" width="76.007" height="76.007" viewBox="0 0 76.007 76.007">
  <g id="Group_7276" data-name="Group 7276" transform="translate(-596 -686.067)">
    <circle id="Ellipse_285" data-name="Ellipse 285" cx="38.003" cy="38.003" r="38.003" transform="translate(596 686.067)" fill="#4f872e"/>
    <g id="Group_6784" data-name="Group 6784" transform="translate(613.064 701.254)">
      <path id="Path_4496" data-name="Path 4496" d="M1262.408,337.245h-24.353c1.14-1.04,2.017-1.789,2.836-2.6,2.282-2.252,4.508-4.564,6.834-6.77a3.483,3.483,0,0,1,2.025-.875c1.917-.118,3.847-.07,5.769-.015a1.693,1.693,0,0,1,1.246.512C1258.629,330.621,1260.42,333.786,1262.408,337.245Z" transform="translate(-1225.214 -301.866)" fill="#fff" fill-rule="evenodd"/>
      <path id="Path_4497" data-name="Path 4497" d="M1241.275,242.995c-.9,1.072-1.288,1.62-1.757,2.09q-18.867,18.886-37.747,37.758-2.307,2.307-4.613,4.615c-.6.6-1.263,1.121-2.021.327s-.2-1.429.4-2.025q21.343-21.337,42.7-42.659a2.905,2.905,0,0,1,1.658-.646C1240.282,242.413,1240.714,242.761,1241.275,242.995Z" transform="translate(-1194.772 -242.452)" fill="#fff" fill-rule="evenodd"/>
      <path id="Path_4498" data-name="Path 4498" d="M1234.411,264.533V254.473h-10.068c0,2.7-.07,5.354.026,8a7.352,7.352,0,0,1-1.118,4.18q-4.745,8.036-9.323,16.169a13.06,13.06,0,0,0-.644,2.354c-.2.6-.508,1.16-.927,2.093a4.584,4.584,0,0,1-.105-5.088c3.239-5.6,6.49-11.193,9.682-16.82a5.361,5.361,0,0,0,.638-2.355c.086-2.171.045-4.349.023-6.524-.009-.887.2-1.774-.738-2.5-.628-.487-.053-1.277,1.024-1.3,1.927-.041,3.856-.014,5.783-.014,2.472,0,4.944-.027,7.414.029.416.009.823.379,1.234.583-.23.37-.486.727-.683,1.114a2.821,2.821,0,0,0-.415,1.109c-.041,1.976-.019,3.954-.02,5.931C1236.194,263.157,1236.193,263.157,1234.411,264.533Z" transform="translate(-1206.561 -249.629)" fill="#fff" fill-rule="evenodd"/>
      <path id="Path_4499" data-name="Path 4499" d="M1226.05,322.665c.811-1.4,1.984-1.636,3.433-1.624,7.66.062,15.324-.088,22.981.087,3.04.07,4.309-2.4,2.8-4.813-2.7-4.308-5.087-8.806-7.7-13.17-.667-1.116-.708-1.859.556-2.553l7.243,12.541c.618,1.069,1.284,2.113,1.844,3.211a4.372,4.372,0,0,1-3.723,6.451c-9.043.078-18.088.023-27.133.016C1226.277,322.811,1226.2,322.737,1226.05,322.665Z" transform="translate(-1216.77 -283.343)" fill="#fff" fill-rule="evenodd"/>
      <path id="Path_4500" data-name="Path 4500" d="M1237.577,326.957l-6.656,6.673-.181-.091a64,64,0,0,1,3.83-6.385c.447-.6,1.94-.408,2.953-.579Q1237.551,326.766,1237.577,326.957Z" transform="translate(-1220.069 -301.617)" fill="#fff" fill-rule="evenodd"/>
    </g>
  </g>
</svg>
