<svg xmlns="http://www.w3.org/2000/svg" width="76" height="76" viewBox="0 0 76 76">
  <g id="Group_6946" data-name="Group 6946" transform="translate(-816 -851)">
    <circle id="Ellipse_284" data-name="Ellipse 284" cx="38" cy="38" r="38" transform="translate(816 851)" fill="#4f872e"/>
    <g id="Group_6782" data-name="Group 6782" transform="translate(831.982 863.668)">
      <path id="Path_4488" data-name="Path 4488" d="M707.952,335.435c-.22,1.636-.307,3.231-.663,4.763a21.54,21.54,0,0,1-10.04,13.923,2.845,2.845,0,0,1-1.412.4q-9.949.039-19.9.007a2.243,2.243,0,0,1-1.127-.282,21.718,21.718,0,0,1-10.762-17.682,8.564,8.564,0,0,1,0-.878,1.044,1.044,0,0,1,.084-.253Z" transform="translate(-664.037 -308.608)" fill="#fff" fill-rule="evenodd"/>
      <path id="Path_4489" data-name="Path 4489" d="M778.719,192.265c.779-2.582,1.515-5.022,2.25-7.462,1.044-3.464,2.1-6.924,3.114-10.4a1.819,1.819,0,0,0-.076-1.123,4.465,4.465,0,0,1,1.484-5.27,3.369,3.369,0,0,1,1.858-.42,11.044,11.044,0,0,1,2.01.479c2.268.518,2.69,1.964,2.459,3.968a4.161,4.161,0,0,1-1.864,3.035,1.771,1.771,0,0,0-.558.977c-1.317,5.1-2.626,10.2-3.893,15.31-.171.691-.423.943-1.155.921C782.517,192.227,780.682,192.265,778.719,192.265Z" transform="translate(-760.389 -167.592)" fill="#fff" fill-rule="evenodd"/>
      <path id="Path_4490" data-name="Path 4490" d="M690.739,243.758a11.018,11.018,0,0,1-11.116-9.555c-.063-.539.12-.681.585-.795a10.96,10.96,0,0,1,13.337,9.227c.06.522-.13.732-.6.8C692.209,243.538,691.474,243.65,690.739,243.758Z" transform="translate(-677.122 -222.638)" fill="#fff" fill-rule="evenodd"/>
      <path id="Path_4491" data-name="Path 4491" d="M755.8,469.621H734.721c0-.861-.025-1.7.027-2.533.008-.126.372-.318.578-.327.877-.037,1.756-.017,2.634-.017h16.926c1.021,0,1.023,0,1.023,1.058,0,.506-.007,1.011-.018,1.516A1.482,1.482,0,0,1,755.8,469.621Z" transform="translate(-723.419 -418.925)" fill="#fff" fill-rule="evenodd"/>
      <path id="Path_4492" data-name="Path 4492" d="M748.57,173.185a7.1,7.1,0,0,1,6.111,7.841c-.291,1.958-.157,2.077-2.2,1.23A7.047,7.047,0,0,1,748.57,173.185Z" transform="translate(-734.634 -172.291)" fill="#fff" fill-rule="evenodd"/>
      <path id="Path_4493" data-name="Path 4493" d="M849.458,237.541c.464-4.15,5.388-7.075,9.286-5.584.476.182.428.45.344.807A7.164,7.164,0,0,1,849.458,237.541Z" transform="translate(-819.822 -221.338)" fill="#fff" fill-rule="evenodd"/>
      <path id="Path_4494" data-name="Path 4494" d="M843.339,297.3a1.465,1.465,0,0,1,1.439,1.422,1.431,1.431,0,0,1-1.361,1.406,1.376,1.376,0,0,1-1.461-1.363A1.423,1.423,0,0,1,843.339,297.3Z" transform="translate(-813.518 -276.567)" fill="#fff" fill-rule="evenodd"/>
      <path id="Path_4495" data-name="Path 4495" d="M722.6,202.6c-.068.826-.36,1.159-.926,1.161a.816.816,0,0,1-.9-.887c0-.556.329-.965.882-.866C722.034,202.073,722.358,202.438,722.6,202.6Z" transform="translate(-711.706 -196.493)" fill="#fff" fill-rule="evenodd"/>
    </g>
  </g>
</svg>
