<svg xmlns="http://www.w3.org/2000/svg" width="77" height="76" viewBox="0 0 77 76">
  <g id="Group_6947" data-name="Group 6947" transform="translate(-1084 -851)">
    <ellipse id="Ellipse_284" data-name="Ellipse 284" cx="38.5" cy="38" rx="38.5" ry="38" transform="translate(1084 851)" fill="#4f872e"/>
    <g id="Group_6788" data-name="Group 6788" transform="translate(1106.59 866.7)">
      <path id="Path_4506" data-name="Path 4506" d="M313.753,288.052c.049-.464.117-.927.143-1.393a1.585,1.585,0,0,1,1.616-1.707c.375-.036.755-.045,1.132-.047,1.348-.005,2.7,0,4.033,0l-1.72,2.956h-2.074v31.018h14.253c-.3.846-.514,1.558-.818,2.228a.86.86,0,0,1-.668.336q-7.038.028-14.075.007a1.642,1.642,0,0,1-1.67-1.668c-.036-.622-.1-1.243-.152-1.864Z" transform="translate(-313.753 -279.925)" fill="#fff" fill-rule="evenodd"/>
      <path id="Path_4507" data-name="Path 4507" d="M405.753,411.862c.453-1.728.9-3.457,1.367-5.18a1.332,1.332,0,0,1,.363-.537q6.694-6.715,13.4-13.418a1.105,1.105,0,0,1,.229-.14l3.915,3.987c-3.692,3.663-7.525,7.294-11.144,11.129a11.2,11.2,0,0,1-6.507,3.739,11.484,11.484,0,0,0-1.436.421Zm4.581-2.6.135-.448-1.82-1.732-.243.174c-.049.718-.945,1.514-.163,2.079C408.689,409.659,409.621,409.31,410.334,409.263Z" transform="translate(-388.364 -367.256)" fill="#fff" fill-rule="evenodd"/>
      <path id="Path_4508" data-name="Path 4508" d="M360.357,258.566a4.731,4.731,0,0,1,2.7,2.7,5.12,5.12,0,0,0,2.716,2.615c.459.2.889.469,1.341.687a2.728,2.728,0,0,1,1.558,2.518H350.711a2.379,2.379,0,0,1,.983-2.166,3.659,3.659,0,0,1,.722-.441,8.254,8.254,0,0,0,4.454-4.1c.4-.771,1.424-1.218,2.164-1.813Zm.546,3.463a1.278,1.278,0,0,0-1.242-1.177,1.2,1.2,0,0,0-1.178,1.3,1.107,1.107,0,0,0,1.251,1.1C360.5,263.209,360.821,262.745,360.9,262.029Z" transform="translate(-343.725 -258.566)" fill="#fff" fill-rule="evenodd"/>
      <path id="Path_4509" data-name="Path 4509" d="M501.054,376.991l-1.928,2.565-4.061-4.118c.3-.27.665-.608,1.037-.944a2.764,2.764,0,0,1,4.669.985c.088.192.188.378.283.566Z" transform="translate(-460.795 -351.853)" fill="#fff" fill-rule="evenodd"/>
      <path id="Path_4510" data-name="Path 4510" d="M449.211,306.966v-19c-1.745.545-2.682-.124-3.137-1.683-.111-.38-.523-.673-.867-1.092,1.916,0,3.726-.045,5.532.02a1.479,1.479,0,0,1,1.393,1.612q.065,8.447.091,16.895a1.517,1.517,0,0,1-.358.913c-.741.853-1.534,1.661-2.307,2.486Z" transform="translate(-420.361 -280.149)" fill="#fff" fill-rule="evenodd"/>
      <path id="Path_4511" data-name="Path 4511" d="M373.653,347.837l-9.943,9.922-4.932-5,2.392-2.294,2.365,2.628,7.743-7.77Z" transform="translate(-350.268 -328.928)" fill="#fff" fill-rule="evenodd"/>
      <path id="Path_4512" data-name="Path 4512" d="M453.464,455.478l5.373-5.33a30.955,30.955,0,0,1-.043,3.962,1.637,1.637,0,0,1-1.784,1.37C455.888,455.473,454.767,455.478,453.464,455.478Z" transform="translate(-427.057 -413.937)" fill="#fff" fill-rule="evenodd"/>
    </g>
  </g>
</svg>
