<svg id="Component_64_11" data-name="Component 64 – 11" xmlns="http://www.w3.org/2000/svg" width="172.355" height="58.569" viewBox="0 0 172.355 58.569">
  <path id="Path_4582" data-name="Path 4582" d="M347-208.78c.017.35.832.865,1.049.649.117-.117.083-.266-.133-.516C347.583-209.013,347-209.1,347-208.78Z" transform="translate(-301.955 253.818)"/>
  <path id="Path_4583" data-name="Path 4583" d="M289-198.5a6.359,6.359,0,0,0,1.248,2.5c.333-.05.216-.632-.3-1.681C289.383-198.836,289-199.169,289-198.5Z" transform="translate(-253.609 245.371)"/>
  <path id="Path_4584" data-name="Path 4584" d="M188.224-196.76c-.233.233-.266.965-.05.965.2,0,.682-.666.682-.949C188.856-197.009,188.49-197.026,188.224-196.76Z" transform="translate(-169.443 243.795)"/>
  <path id="Path_4585" data-name="Path 4585" d="M209.943-196.494a6.187,6.187,0,0,1-.333.816c-.25.466-.366,1.431-.2,1.548.216.133.583-.466.865-1.4a4.116,4.116,0,0,1,.383-.949.36.36,0,0,0,.033-.383C210.492-197.193,210.143-197.026,209.943-196.494Z" transform="translate(-187.201 243.862)"/>
  <path id="Path_4586" data-name="Path 4586" d="M318-192.6c0,.35.6.982.782.8.067-.05.033-.316-.05-.566C318.549-192.9,318-193.084,318-192.6Z" transform="translate(-277.783 240.402)"/>
  <path id="Path_4587" data-name="Path 4587" d="M228.567-178.428c-.2.566-.117.816.233.816.25,0,.466-.682.316-1.065C228.966-179.093,228.766-178.994,228.567-178.428Z" transform="translate(-203.145 228.775)"/>
  <path id="Path_4588" data-name="Path 4588" d="M272.071-176.483c-.166.433,0,1.032.316,1.082.216.05.283-.05.283-.433C272.671-176.416,272.238-176.9,272.071-176.483Z" transform="translate(-239.443 226.863)"/>
  <g id="Group_6971" data-name="Group 6971">
    <path id="Path_4526" data-name="Path 4526" d="M105.558-478.2a2.157,2.157,0,0,0-.366.732,3.478,3.478,0,0,1-1.814,1.914,10.22,10.22,0,0,1-2.663.533c-2.613.283-3.728.766-4.128,1.831-.133.316-.233.366-.533.25a5.551,5.551,0,0,0-1.282-.133c-1.182,0-2.114.433-3.745,1.764-2.28,1.881-3.112,2.2-4.427,1.714-1.015-.383-1.6-.483-1.714-.283a2.855,2.855,0,0,0,.333,1.115c.7,1.515.416,2.513-1.265,4.494-1.5,1.764-1.881,2.58-1.864,3.895l.017,1.1-.7.433c-.949.566-1.415,1.564-1.7,3.612-.133.882-.25,1.864-.25,2.164a3.856,3.856,0,0,1-2.33,3.2,1.474,1.474,0,0,0-.749.466c-.117.316.216.7.616.7a3.414,3.414,0,0,1,1.648,1.032c.466.516.766,1.648.965,3.6.233,2.264.616,3.2,1.548,3.828.533.333.632.5.549.766-.549,1.648-.017,3.129,1.914,5.359,1.681,1.931,2.047,3.462,1.165,4.81-.549.832-.067,1.182.915.632a4.315,4.315,0,0,1,3-.017,16.506,16.506,0,0,1,1.764,1.331c1.831,1.515,2.43,1.8,3.828,1.8,1.082,0,1.165.033,1.315.416a4.356,4.356,0,0,0,2.031,1.581.47.47,0,0,1,.366.15,10.811,10.811,0,0,0,3.179.466c1.964.15,3,.849,3.612,2.463.166.433.366.666.549.666.316,0,.433-.166.749-1.032a3.535,3.535,0,0,1,1.731-1.781,13.924,13.924,0,0,1,2.463-.433,20.552,20.552,0,0,0,2.53-.383,3.779,3.779,0,0,0,1.864-1.531c.166-.3.233-.3.882-.083,1.265.416,2.929-.3,5.06-2.13,1.764-1.531,2.979-1.864,4.361-1.2,1.265.616,1.681.316,1.082-.749a3.877,3.877,0,0,1-.15-2.913c.133-.233.649-.932,1.165-1.581,1.764-2.2,1.981-2.646,1.981-4.028,0-1.015.05-1.248.3-1.331,1.132-.4,1.931-2.014,2.2-4.394.25-2.313.449-3.129.9-3.728a5.208,5.208,0,0,1,2.147-1.315c.466-.15.3-.832-.216-.9a3.106,3.106,0,0,1-1.431-.616,5.277,5.277,0,0,1-1.232-3.245,16.954,16.954,0,0,0-.583-3.246,3.475,3.475,0,0,0-1.365-1.6c-.333-.117-.4-.233-.3-.533.549-1.731-.1-3.5-2.064-5.592a9.119,9.119,0,0,1-.949-1.282,2.567,2.567,0,0,1-.366-1.847,7.533,7.533,0,0,1,.3-1.664c.133-.3.183-.6.117-.666a1.888,1.888,0,0,0-.965.183,4.278,4.278,0,0,1-1.881.233c-1.015-.067-1.132-.116-2.33-1.048-.7-.549-1.681-1.3-2.214-1.664a2.59,2.59,0,0,0-2.13-.632c-1.182.033-1.182.033-1.481-.533-.666-1.215-2.979-2.08-5.609-2.08a3.7,3.7,0,0,1-2.546-1.015,3.318,3.318,0,0,1-1.1-1.731.641.641,0,0,0-.216-.4C105.858-478.452,105.741-478.435,105.558-478.2Zm1.947,3.312a10.172,10.172,0,0,0,3.678.716,4.708,4.708,0,0,1,3.2,1.265c.483.5.549.682.466,1.115-.35,1.664-.35,1.648.166,1.581.366-.033.549-.2.766-.666.682-1.431,2.963-.782,5.209,1.481a8.163,8.163,0,0,0,1.2.732,3.642,3.642,0,0,0,1.914.483h.965v1c0,1.3.35,2.047,1.8,3.778a14.14,14.14,0,0,1,1.348,1.831c.117.25.283.6.366.749a3.423,3.423,0,0,1,.15,1.115c0,.816-.233,1.215-.8,1.3a1.16,1.16,0,0,0-.7.7,1.018,1.018,0,0,0,.15.333c.133.2.266.216.816.05.849-.25,1.1-.15,1.664.7a5.04,5.04,0,0,1,.865,3.029,5.356,5.356,0,0,0,1.6,4.211l.6.533-.666.616a4.248,4.248,0,0,0-.9,1.2,12.117,12.117,0,0,0-.632,3.545,5.244,5.244,0,0,1-1.265,3.245,1.213,1.213,0,0,1-1.731.266,1.037,1.037,0,0,0-.732-.183c-.566.216-.183,1.049.616,1.332.4.15.666.915.549,1.648a5.132,5.132,0,0,1-.932,1.964c-.05.05-.483.549-.965,1.115a5.106,5.106,0,0,0-1.531,3.562v.982h-1a4.812,4.812,0,0,0-3.345,1.431c-.5.416-1.032.865-1.2,1a7.086,7.086,0,0,1-2.846,1.232,1.427,1.427,0,0,1-1.515-1.015c-.133-.583-.533-.849-.949-.632-.366.2-.383.616-.033,1.115.233.333.233.416-.017.915-.466.982-1.914,1.614-3.745,1.614a5.2,5.2,0,0,0-4.144,1.531c-.483.566-.732.582-1.065.067a4.076,4.076,0,0,0-2.08-1.3,22.062,22.062,0,0,0-2.2-.3c-2.064-.183-3.212-.566-3.828-1.282-.483-.549-.682-1.415-.35-1.614a.952.952,0,0,0,.083-1.115c-.266-.216-.9-.033-.9.266a1.625,1.625,0,0,1-.4.7c-.816.949-2.264.516-4.577-1.381-1.431-1.2-2.28-1.564-3.512-1.564h-1v-1c0-1.282-.366-2.047-1.764-3.745-1.415-1.748-1.9-2.68-1.9-3.728,0-.7.067-.882.433-1.165a1.556,1.556,0,0,1,.649-.35,1.3,1.3,0,0,0,.6-.316c.35-.266.366-.35.15-.6-.166-.2-.366-.25-.732-.166-1.548.316-1.515.316-2.114-.383a4.666,4.666,0,0,1-.982-3.129,5.426,5.426,0,0,0-1.5-4.161l-.666-.649.383-.333a6.43,6.43,0,0,0,1.781-4.743,5.178,5.178,0,0,1,1.4-3.695c.383-.316,1.182-.4,1.348-.133.15.233.8.216,1.049-.033.35-.35.216-.616-.449-.965a1.169,1.169,0,0,1-.766-.832c-.233-1.049.183-2.014,1.681-3.795,1.365-1.648,1.731-2.413,1.731-3.695v-1h1c1.248,0,1.914-.316,3.728-1.781,1.664-1.348,2.746-1.881,3.778-1.881.849,0,1.115.2,1.4,1.065.133.433.25.516.666.516.533,0,.533.05.316-1.431a1.031,1.031,0,0,1,.3-1.049,4.929,4.929,0,0,1,3.3-1.1,5.776,5.776,0,0,0,4.394-1.614l.483-.566.516.566A4.728,4.728,0,0,0,107.505-474.89Z" transform="translate(-76.358 478.403)"/>
    <path id="Path_4527" data-name="Path 4527" d="M236.36-430.2c-.3.433-.915,1.3-1.365,1.947-.9,1.248-.982,1.631-.616,2.463a2.638,2.638,0,0,0,2.663,1.781,2.772,2.772,0,0,0,2.746-1.581c.483-1.032.433-1.348-.333-2.413-.366-.5-.965-1.381-1.365-1.947-.383-.583-.816-1.049-.949-1.049S236.643-430.634,236.36-430.2Zm1.731,2.447a5.37,5.37,0,0,1,.716,1.265c0,.383-.732,1.115-1.232,1.248a2.518,2.518,0,0,1-.865,0c-.483-.133-1.232-.865-1.232-1.215a5.792,5.792,0,0,1,1.664-2.33A3.647,3.647,0,0,1,238.091-427.755Z" transform="translate(-207.91 438.889)"/>
    <path id="Path_4528" data-name="Path 4528" d="M221-423.636c0,.5.183.849.433.849s.3-.449.133-.9C221.416-424.052,221-424.019,221-423.636Z" transform="translate(-196.927 433.007)"/>
    <path id="Path_4529" data-name="Path 4529" d="M278.44-423.527c-.183.5-.083.949.216.849.233-.083.449-.782.333-1.1C278.873-424.109,278.623-424.01,278.44-423.527Z" transform="translate(-244.73 433.031)"/>
    <path id="Path_4530" data-name="Path 4530" d="M197.424-417.912a5.659,5.659,0,0,0,1.148,2.646c.283.067.383-.583.133-.9a3.793,3.793,0,0,1-.35-.815C198.023-417.962,197.673-418.311,197.424-417.912Z" transform="translate(-177.262 428.115)"/>
    <path id="Path_4531" data-name="Path 4531" d="M295.715-415.74c-.632,1.3-.7,1.631-.333,1.631a5.406,5.406,0,0,0,1.348-2.6C296.547-417.171,296.281-416.921,295.715-415.74Z" transform="translate(-258.743 427.158)"/>
    <path id="Path_4532" data-name="Path 4532" d="M318.484-415.215a.944.944,0,0,0-.166.682c.1.25.133.25.433-.017.35-.316.433-.832.166-1C318.834-415.6,318.634-415.448,318.484-415.215Z" transform="translate(-278.034 426.017)"/>
    <path id="Path_4533" data-name="Path 4533" d="M177.313-411.7c-.117.3.383,1.132.6,1,.233-.15.2-.616-.067-.965S177.429-412.033,177.313-411.7Z" transform="translate(-160.496 423.001)"/>
    <path id="Path_4534" data-name="Path 4534" d="M337.123-405.627c-.882.949-1.132,1.4-.882,1.648.166.166,2.047-1.814,2.047-2.147C338.288-406.609,337.872-406.426,337.123-405.627Z" transform="translate(-292.911 418.377)"/>
    <path id="Path_4535" data-name="Path 4535" d="M155.473-400.7a2.759,2.759,0,0,0,.7,1.132c.9,1.065,1.065,1.215,1.248,1.1.266-.166.117-.533-.632-1.415C155.989-400.816,155.673-401.016,155.473-400.7Z" transform="translate(-142.301 413.749)"/>
    <path id="Path_4536" data-name="Path 4536" d="M192.913-391.5c-.316.266-.549.516-.5.549.033.033.566.3,1.182.583a7.8,7.8,0,0,1,4.46,6.757c0,1.431-1.148,4.028-2.963,6.674-1.065,1.531-.666,1.415-4.56,1.415a22.828,22.828,0,0,1-3.795-.166,11.167,11.167,0,0,1-2.014-2.763,16.3,16.3,0,0,1-1.631-3.379,6.362,6.362,0,0,1,.583-5.276,8.168,8.168,0,0,1,3.512-3.262c.616-.283,1.165-.549,1.215-.583.117-.1-.882-.865-1.148-.882-.616-.017-2.18.982-3.262,2.064a8.136,8.136,0,0,0-2.23,8.272,16.432,16.432,0,0,0,1.664,3.512,1.862,1.862,0,0,1,.316.583,3.059,3.059,0,0,0,.5.716c.9,1.032.816,1.065-2.863,1.165l-3.279.083.416.533.416.549h11.734c12.533,0,12.15.033,11.384-.8-.333-.349-.483-.366-3.162-.366a17.645,17.645,0,0,1-2.9-.133,4.994,4.994,0,0,1,.766-1.365,21.179,21.179,0,0,0,2.447-5.026,8.63,8.63,0,0,0-.832-5.659,10,10,0,0,0-3.778-3.761c-.583-.3-1.065-.533-1.082-.533C193.5-391.983,193.229-391.767,192.913-391.5Z" transform="translate(-161.167 406.38)"/>
    <path id="Path_4537" data-name="Path 4537" d="M300.939-389.168c-.433.782-.466,1.165-.1,1.165a4.851,4.851,0,0,0,1.148-1.8c0-.1-.133-.2-.283-.2C301.522-390,301.222-389.667,300.939-389.168Z" transform="translate(-263.268 404.713)"/>
    <path id="Path_4538" data-name="Path 4538" d="M192-386.6c0,.449.816,1.664,1.1,1.664.366,0,.266-.466-.266-1.265C192.283-387,192-387.133,192-386.6Z" transform="translate(-172.753 402.146)"/>
    <path id="Path_4539" data-name="Path 4539" d="M314.834-385.319c-1.232,1.5-1.531,2.031-1.165,2.114a16.435,16.435,0,0,0,3.012-3.528C316.449-387.1,316.116-386.834,314.834-385.319Z" transform="translate(-274.051 402.113)"/>
    <path id="Path_4540" data-name="Path 4540" d="M355.389-383.55c-.416.433-.483.782-.15.782.35,0,.949-.649.849-.915C355.955-384.033,355.805-384,355.389-383.55Z" transform="translate(-308.647 399.645)"/>
    <path id="Path_4541" data-name="Path 4541" d="M147.233-382.657c-.1.3.383.915.732.915.316,0,.266-.383-.117-.8C147.433-382.973,147.366-382.99,147.233-382.657Z" transform="translate(-135.426 398.785)"/>
    <path id="Path_4542" data-name="Path 4542" d="M171-381.991a17.2,17.2,0,0,0,2.8,3.429.229.229,0,0,0,.3-.15,6.012,6.012,0,0,0-1.431-2.08,6.044,6.044,0,0,1-.566-.716C171.682-382.041,171-382.357,171-381.991Z" transform="translate(-155.248 398.169)"/>
    <path id="Path_4543" data-name="Path 4543" d="M168-363.6a2.532,2.532,0,0,0,1.415,1.365c.449,0,.266-.466-.449-1.065C168.183-363.979,168-364.029,168-363.6Z" transform="translate(-152.748 382.936)"/>
    <path id="Path_4544" data-name="Path 4544" d="M328.68-363.408c-.616.533-.749.849-.449,1.032.2.133,1.664-1.065,1.664-1.365C329.9-364.123,329.33-363.957,328.68-363.408Z" transform="translate(-286.183 382.998)"/>
    <path id="Path_4545" data-name="Path 4545" d="M138.189-362.488c-.216.233-.05.416,1.049,1.148,1.049.7,1.515.816,1.515.4a9.04,9.04,0,0,0-2.2-1.548A.449.449,0,0,0,138.189-362.488Z" transform="translate(-127.83 381.811)"/>
    <path id="Path_4546" data-name="Path 4546" d="M356.132-355.9c-.732.4-1.132.716-1.132.9,0,.416.2.383,1.5-.333.7-.366,1.148-.716,1.132-.849C357.546-356.58,357.3-356.53,356.132-355.9Z" transform="translate(-308.624 376.736)"/>
    <path id="Path_4547" data-name="Path 4547" d="M158-349.569c0,.383,2.913,2.28,3.262,2.147.2-.067.2-.166.067-.433-.1-.183-.25-.333-.35-.333a9.789,9.789,0,0,1-1.4-.832C158.25-349.919,158-350,158-349.569Z" transform="translate(-144.412 371.223)"/>
    <path id="Path_4548" data-name="Path 4548" d="M329.855-344.357c-2.6,1.348-2.813,1.515-2.53,1.8.216.216.166.233,2.28-.915,1.215-.649,1.614-1.082,1.165-1.232A2.964,2.964,0,0,0,329.855-344.357Z" transform="translate(-285.476 366.959)"/>
    <path id="Path_4549" data-name="Path 4549" d="M128-338.783c0,.266.516.633.882.649.433,0,.366-.6-.083-.732C128.233-339.016,128-338.983,128-338.783Z" transform="translate(-119.405 362.168)"/>
    <path id="Path_4550" data-name="Path 4550" d="M375.4-334.75c-.516.2-.5.666.017.666.433,0,.849-.4.682-.666C375.986-334.95,375.9-334.95,375.4-334.75Z" transform="translate(-325.316 358.784)"/>
    <path id="Path_4551" data-name="Path 4551" d="M153-328.75c0,.15.2.333.466.433.25.116.616.266.816.35.366.183.716.067.716-.216,0-.2-1.282-.8-1.7-.816A.281.281,0,0,0,153-328.75Z" transform="translate(-140.244 353.866)"/>
    <path id="Path_4552" data-name="Path 4552" d="M342.082-324.55c-.849.35-1.082.516-1.082.716s.949.2,1.082-.017a.476.476,0,0,1,.4-.166,1.337,1.337,0,0,0,.616-.25c.266-.216.283-.266.067-.416C342.847-324.882,342.881-324.882,342.082-324.55Z" transform="translate(-296.954 350.381)"/>
    <path id="Path_4553" data-name="Path 4553" d="M184.158-316.607a.6.6,0,0,0,.3.416c.882.449,1.165.533,1.4.449.433-.166.3-.433-.35-.7C184.407-316.907,184.091-316.94,184.158-316.607Z" transform="translate(-166.209 343.72)"/>
    <path id="Path_4554" data-name="Path 4554" d="M118.132-315.66c.05.316,1.381.716,2.43.732.965,0,.6-.566-.466-.732-.416-.05-1.032-.15-1.381-.2C118.149-315.959,118.083-315.926,118.132-315.66Z" transform="translate(-111.169 342.955)"/>
    <path id="Path_4555" data-name="Path 4555" d="M373.748-315.763a2.476,2.476,0,0,1-.832.15c-.5.017-.915.266-.915.549,0,.3,2.463-.05,2.946-.416C375.462-315.862,374.5-316.079,373.748-315.763Z" transform="translate(-322.795 342.959)"/>
    <path id="Path_4556" data-name="Path 4556" d="M141.122-311.613c-.233.366-.067.433,2.546,1.015,1.065.233,1.4.2,1.331-.133-.033-.183-.266-.333-.632-.4-.316-.067-1-.2-1.5-.3s-1.082-.216-1.265-.283C141.4-311.762,141.188-311.729,141.122-311.613Z" transform="translate(-130.28 339.474)"/>
    <path id="Path_4557" data-name="Path 4557" d="M307.791-311.624c-.583.216-1,.649-.782.849a4.542,4.542,0,0,0,1.914-.649C309.489-311.874,308.823-312.007,307.791-311.624Z" transform="translate(-268.572 339.569)"/>
    <path id="Path_4558" data-name="Path 4558" d="M345.913-311.454c-.366.083-1.082.233-1.581.333-1.3.266-1.331.283-1.331.566s.566.333,1.481.1c.333-.083,1.032-.25,1.564-.366.7-.15.949-.283.915-.449C346.895-311.6,346.712-311.637,345.913-311.454Z" transform="translate(-298.621 339.332)"/>
    <path id="Path_4559" data-name="Path 4559" d="M121-290.75c0,.166.183.25.583.25s.583-.083.583-.25-.183-.25-.583-.25S121-290.917,121-290.75Z" transform="translate(-113.57 322.19)"/>
    <path id="Path_4560" data-name="Path 4560" d="M147.147-290.883c-.283.283-.033.383.882.383.782,0,1-.05,1-.25,0-.183-.216-.25-.882-.25A2.572,2.572,0,0,0,147.147-290.883Z" transform="translate(-135.274 322.19)"/>
    <path id="Path_4561" data-name="Path 4561" d="M347.371-290.621c-.366.117-.383.333-.033.466.766.283,2.363.017,2-.349A5.273,5.273,0,0,0,347.371-290.621Z" transform="translate(-302.027 321.911)"/>
    <path id="Path_4562" data-name="Path 4562" d="M381.367-290.85c-.333.216-.067.516.483.516a.849.849,0,0,0,.6-.183c.117-.2-.216-.483-.6-.483A1.085,1.085,0,0,0,381.367-290.85Z" transform="translate(-330.481 322.19)"/>
    <path id="Path_4563" data-name="Path 4563" d="M153.414-277.506c-.416.1-1.015.216-1.331.283-.35.067-.583.216-.583.366,0,.2.183.233.832.2,1.331-.1,2.663-.449,2.663-.716C155-277.655,154.413-277.705,153.414-277.506Z" transform="translate(-138.994 311.043)"/>
    <path id="Path_4564" data-name="Path 4564" d="M194.785-276.264c-5.942.017-10.785.1-10.785.166a1.237,1.237,0,0,0,.383.5l.383.366H195.5c5.908,0,10.8-.05,10.852-.1.15-.15-.183-.7-.516-.849C205.687-276.264,200.71-276.3,194.785-276.264Z" transform="translate(-166.085 309.918)"/>
    <path id="Path_4565" data-name="Path 4565" d="M330.45-276.479c-.166.266.366.533,1.431.7.583.083,1.332.216,1.7.266.549.083.633.067.583-.2-.05-.216-.333-.366-.982-.5A6.223,6.223,0,0,0,330.45-276.479Z" transform="translate(-288.135 310.149)"/>
    <path id="Path_4566" data-name="Path 4566" d="M130.587-273.267a7.091,7.091,0,0,1-1.1.133,1.344,1.344,0,0,0-.9.349c-.3.333-.283.333.466.333,1.032,0,2.447-.35,2.447-.6C131.5-273.334,131.17-273.417,130.587-273.267Z" transform="translate(-119.745 307.47)"/>
    <path id="Path_4567" data-name="Path 4567" d="M358-271.97c.017.333.35.5,1.465.682,1.531.25,1.564.25,1.5-.083C360.879-271.787,358-272.37,358-271.97Z" transform="translate(-311.125 306.44)"/>
    <path id="Path_4568" data-name="Path 4568" d="M161.551-261.6c-.583.25-.749.732-.266.732.583,0,1.381-.4,1.381-.7C162.666-261.916,162.3-261.933,161.551-261.6Z" transform="translate(-146.915 297.883)"/>
    <path id="Path_4569" data-name="Path 4569" d="M178.25-260.5l.35.5h11.734c12.383,0,12.216.017,11.417-.716-.283-.266-1.365-.283-12.083-.283H177.9Z" transform="translate(-161 297.184)"/>
    <path id="Path_4570" data-name="Path 4570" d="M333.038-259.724c.1.449,1.981,1.032,1.981.6,0-.266-.749-.666-1.415-.782C333.071-259.99,332.988-259.957,333.038-259.724Z" transform="translate(-290.307 296.307)"/>
    <path id="Path_4571" data-name="Path 4571" d="M249.226-253.664a32.741,32.741,0,0,0,.266,5.825,9.5,9.5,0,0,0,.15-2.713c0-1.614,0-3,.017-3.062C249.676-253.831,249.343-253.864,249.226-253.664Z" transform="translate(-220.409 291.179)"/>
    <path id="Path_4572" data-name="Path 4572" d="M138.384-251.714c-.266.333-.083.566.383.466.483-.133.8-.383.682-.566C139.316-252.046,138.617-251.98,138.384-251.714Z" transform="translate(-127.958 289.645)"/>
    <path id="Path_4573" data-name="Path 4573" d="M184.294-251.717c-.333.383-2.53,3.695-2.963,4.46-.183.316-.483.865-.682,1.2a4.623,4.623,0,0,1-.5.782.689.689,0,0,0-.15.383c0,.183.2.2.882.117.865-.1,5.476-.849,5.942-.965.133-.033.449-.116.716-.166.5-.117.583-.5.216-.965-.233-.316-.516-.266-4.394.566-1.4.3-1.4.3.649-2.879a18.8,18.8,0,0,1,1.565-2.147c.583-.549.533-.666-.3-.666A1.328,1.328,0,0,0,184.294-251.717Z" transform="translate(-162.75 289.681)"/>
    <path id="Path_4574" data-name="Path 4574" d="M216.676-251.734a3.319,3.319,0,0,0-.1.832c0,.466-.133.666-.849,1.232-.466.366-.732.666-.6.666a1.868,1.868,0,0,0,.782-.433c.283-.25.533-.416.566-.383s.25.666.483,1.4a51.74,51.74,0,0,0,3.279,7.773,16.82,16.82,0,0,0,.915,1.8c.05,0,1.764-3.462,2.247-4.577.5-1.115.832-1.914,1.015-2.38.366-.915.533-1.3.649-1.548a10.6,10.6,0,0,0,.449-1.531,4.98,4.98,0,0,1,.4-1.282,3.541,3.541,0,0,1,.749.583c.949.865,1.015.7.1-.233a5,5,0,0,1-1.032-1.515c-.216-.649-.25-.682-.816-.632-.449.033-.583.117-.516.3a6.172,6.172,0,0,1,.067,1.331c-.017,1.165-.632,3.012-1.914,5.792a14.939,14.939,0,0,0-.649,1.5,4.126,4.126,0,0,1-.4.782l-.4.666-.5-1.082c-1.015-2.2-1.365-3.012-1.365-3.079a8.361,8.361,0,0,0-.316-.8,8.615,8.615,0,0,1-1.065-4.161l.017-1.282h-.549C216.976-252,216.743-251.9,216.676-251.734Z" transform="translate(-192.004 289.681)"/>
    <path id="Path_4575" data-name="Path 4575" d="M277.489-252a1.857,1.857,0,0,0,.4.533,41.652,41.652,0,0,1,3.262,4.96c0,.283.067.3-2.829-.283-1.4-.283-2.563-.483-2.58-.466-.2.25-.416.832-.333.949.216.383,8.072,1.731,8.072,1.4a59,59,0,0,0-4.294-6.924C278.937-252.113,277.489-252.263,277.489-252Z" transform="translate(-242.264 289.794)"/>
    <path id="Path_4576" data-name="Path 4576" d="M361.434-249.778c-.117.2.566.682.949.682.449,0,.35-.483-.133-.666C361.717-249.961,361.567-249.961,361.434-249.778Z" transform="translate(-313.976 287.942)"/>
    <path id="Path_4577" data-name="Path 4577" d="M145.1-239.272c-1.015.583-1.5,1.182-.949,1.182a9.087,9.087,0,0,0,2.48-1.381c.133-.233.017-.449-.25-.433A6.194,6.194,0,0,0,145.1-239.272Z" transform="translate(-132.675 279.6)"/>
    <path id="Path_4578" data-name="Path 4578" d="M345.242-234.706c-.166.266.033.449,1.148,1.082,1.015.566,1.6.732,1.6.449,0-.233-.5-.616-1.515-1.182C345.442-234.923,345.392-234.939,345.242-234.706Z" transform="translate(-300.447 275.384)"/>
    <path id="Path_4579" data-name="Path 4579" d="M172.715-232.409c-.666.549-.816.982-.333.982.366-.017,1.365-.915,1.365-1.248C173.747-233.058,173.4-232.975,172.715-232.409Z" transform="translate(-156.164 273.769)"/>
    <path id="Path_4580" data-name="Path 4580" d="M322.546-229.632c-.116.166.732,1.082,1.265,1.365.316.166.516-.033.366-.383a3.78,3.78,0,0,0-1.282-1.065A.29.29,0,0,0,322.546-229.632Z" transform="translate(-281.562 271.125)"/>
    <path id="Path_4581" data-name="Path 4581" d="M153.456-213.7c-.25.216-.333.416-.266.616.117.266.15.266.5.033.366-.233.6-.949.316-.949A1.513,1.513,0,0,0,153.456-213.7Z" transform="translate(-140.384 258.006)"/>
    <path id="Path_4589" data-name="Path 4589" d="M1056.661-418.8c-.283.283-.066.649.366.649.882,0,.915.083.915,1.981,0,1.931.133,2.38.616,2.08.25-.15.316-.5.383-2.08l.083-1.9.549-.05c.6-.067.9-.466.516-.716A9.1,9.1,0,0,0,1056.661-418.8Z" transform="translate(-893.397 428.871)"/>
    <path id="Path_4590" data-name="Path 4590" d="M1081.791-418.887a13.92,13.92,0,0,0-.25,2.3c-.116,1.781-.1,2.13.117,2.347.4.4.732-.2.732-1.315a2.982,2.982,0,0,1,.167-1.182c.166-.266.133-.35.5,1,.333,1.2.533,1.515.9,1.465.25-.033.45-.349.732-1.132a9.753,9.753,0,0,0,.483-1.531c.166-.9.383-.25.383,1.115,0,1.232.033,1.431.333,1.581.649.349.716.083.616-2.114a12.106,12.106,0,0,0-.283-2.38c-.266-.516-1.332-.4-1.332.15a15.321,15.321,0,0,1-.865,2.6,8.63,8.63,0,0,1-.8-2.3C1083.222-418.887,1082.09-419.37,1081.791-418.887Z" transform="translate(-914.183 428.957)"/>
    <path id="Path_4591" data-name="Path 4591" d="M673.2-386.85c.033.067.433.7.882,1.4l.832,1.282h10.868c5.958,0,10.852-.05,10.852-.1a3.379,3.379,0,0,0-.583-1.032c-.133-.15-.466-.6-.749-1l-.5-.7H683.968C678.009-387,673.166-386.933,673.2-386.85Z" transform="translate(-573.864 402.213)"/>
    <path id="Path_4592" data-name="Path 4592" d="M841-386.763a6.346,6.346,0,0,0,1,1.415l1,1.215h5.709c5.592,0,5.725,0,6.99.416a8.413,8.413,0,0,1,3.695,2.147,8.671,8.671,0,0,1,2.68,5.093,8.424,8.424,0,0,1-4.111,9.287,10.75,10.75,0,0,1-3.728,1.132,34.934,34.934,0,0,1-7.057.083c-.216-.133-.25-1.381-.25-8.288l-.017-8.122-1.365-.05-1.381-.05v19.323h4.877c6.058,0,7.173-.166,9.853-1.531a11.42,11.42,0,0,0,5.576-6.374,14.817,14.817,0,0,0,.25-7.19,12.029,12.029,0,0,0-3.445-5.576,12.85,12.85,0,0,0-5.376-2.746C854.731-386.946,841-387.113,841-386.763Z" transform="translate(-713.736 402.175)"/>
    <path id="Path_4593" data-name="Path 4593" d="M1023-386.692v20.139l1.282,1.731c.7.965,1.331,1.681,1.415,1.6.067-.067.116-5.409.1-11.867l-.05-11.717-1.365-.05C1023.333-386.891,1023-386.858,1023-386.692Z" transform="translate(-865.445 402.104)"/>
    <path id="Path_4594" data-name="Path 4594" d="M456.15-385.634a7.516,7.516,0,0,0,.716,1.082c.25.35.6.816.766,1.049.3.416.333.416,2.447.416h2.147l.15.616c.083.349.25,1.049.35,1.548a35.054,35.054,0,0,0,1.681,5.243c.216.566,1.981,4.128,2.43,4.893a42.584,42.584,0,0,0,3.562,5.076c2.214,2.63,3.2,3.595,3.645,3.595.483,0,4.96-5.442,6.491-7.872,2.863-4.594,5.01-10.752,5.209-14.929l.05-1.082-1.365-.05-1.381-.05-.033.716a7.262,7.262,0,0,1-.05.882c-.017.083-.083.533-.166,1a34.35,34.35,0,0,1-3.778,10.469c-1.714,3.029-4.544,6.757-5.11,6.757-.466-.017-3.4-3.845-4.76-6.191-.416-.732-1.681-3.279-2.13-4.294-.233-.516-.816-2.247-1.265-3.745-.083-.283-.233-.882-.333-1.331-.1-.466-.25-1.182-.35-1.614a9.431,9.431,0,0,1-.166-1.448c0-1.265.3-1.182-4.594-1.182H455.9Z" transform="translate(-392.731 401.462)"/>
    <path id="Path_4595" data-name="Path 4595" d="M686-324.825a3.483,3.483,0,0,0,.666,1.032,7.987,7.987,0,0,1,.5.666,4.393,4.393,0,0,0,.666.782c.3.25,17.226.316,17.376.067a10.012,10.012,0,0,0-1.8-2.546C703.159-324.992,686-324.992,686-324.825Z" transform="translate(-584.534 350.49)"/>
    <path id="Path_4596" data-name="Path 4596" d="M673-260.883a1.641,1.641,0,0,0,.333.549,1.612,1.612,0,0,1,.333.616c0,.117.05.216.133.216a2.187,2.187,0,0,1,.533.666l.416.666h21.9l-.965-1.415-.965-1.4L683.868-261C677.893-261,673-260.95,673-260.883Z" transform="translate(-573.698 297.184)"/>
  </g>
</svg>
